<?xml version="1.0" encoding="UTF-8"?><svg id="Quadrangle_and_Rectangle" xmlns="http://www.w3.org/2000/svg" viewBox="0 0 288.45359 288.0004"><defs><style>.cls-1{fill:#002147;}.cls-1,.cls-2{stroke-width:0px;}.cls-2{fill:#fff;}</style></defs><rect class="cls-2" x=".22535" y=".00095" width="288" height="288.0004"/><rect class="cls-1" x="2.4932" y="2.2685" width="283.46429" height="283.4653"/><path class="cls-2" d="M41.0005,203.0053c-.9434.9434-2.4224,1.6836-4.6411,1.6836-1.8101,0-3.5445-.5615-4.7173-1.7344-1.5298-1.5302-1.479-3.4677-1.479-5.1503v-10.4551h2.2949v10.7099c0,1.2998-.0508,2.5752.9692,3.5948.6885.6884,1.7593,1.0713,3.0088,1.0713s2.1929-.4336,2.8052-1.045c1.1475-1.1484,1.0454-2.4482,1.0454-5.33v-9.001h2.2442v8.6445c0,3.1611.1015,5.3799-1.5303,7.0117Z"/><path class="cls-2" d="M58.9224,204.3569l-8.0323-13.54.0508,13.54h-2.0908v-17.0078h2.2695l8.0322,13.5908-.0507-13.5908h2.0908v17.0078h-2.2695Z"/><path class="cls-2" d="M68.0527,204.3569v-17.0078h2.2949v17.0078h-2.2949Z"/><path class="cls-2" d="M83.1016,204.3569h-2.5245l-5.8652-17.0078h2.3716l4.8193,14.6621,4.9473-14.6621h2.2183l-5.9668,17.0078Z"/><path class="cls-2" d="M93.5254,204.3569v-17.0078h9.4097v1.8867h-7.1656v5.3545h6.732v1.8359h-6.732v5.9932h7.3692v1.9375h-9.6133Z"/><path class="cls-2" d="M117.6865,204.3569l-1.9639-4.4365c-1.1728-2.627-1.7338-2.8565-4.0288-2.8565h-1.0708v7.293h-2.2441v-17.0078h3.7739c2.2696,0,4.0293-.0254,5.4063,1.3515.8413.8409,1.3257,1.9629,1.3257,3.3907,0,1.1738-.33159,2.1679-1.0455,2.9326-.6118.6631-1.6064,1.2246-2.7285,1.3515.5611.0254,1.1221.3575,1.4536.6885.50981.5108.8672,1.3262,1.3262,2.3721l2.1929,4.9209h-2.397ZM115.876,190.0522c-.918-.9189-2.1167-.8926-3.4937-.8926h-1.7593v6.0938h.7906c1.6318,0,3.2895.0517,4.3603-1.0196.5357-.5351.84131-1.3261.84131-2.1425,0-.918-.35691-1.6573-.73921-2.0391Z"/><path class="cls-2" d="M128.8452,204.7143c-3.00881,0-5.02341-1.6318-5.227-1.8359l1.09609-1.5811c.3062.2041,1.9634,1.4531,4.0293,1.4531,2.0909,0,3.315-1.249,3.315-2.8046,0-1.8614-2.0825-2.7793-3.919-3.6719-2.167-1.0459-4.0371-2.168-4.0371-4.667,0-2.7031,2.1929-4.5899,5.3296-4.5899,3.1363,0,4.6919,1.5557,4.8447,1.7344l-1.1474,1.4785c-.2041-.1777-1.5557-1.2744-3.5444-1.2744-1.8614,0-3.1875.918-3.1875,2.4473,0,1.6064,1.5043,2.2021,3.1875,3.0693,1.5043.7647,4.8447,1.9287,4.8447,5.2696,0,2.8046-2.0654,4.9726-5.58449,4.9726Z"/><path class="cls-2" d="M139.8061,204.3569v-17.0078h2.295v17.0078h-2.295Z"/><path class="cls-2" d="M153.8198,189.2358v15.1211h-2.2949v-15.1211h-4.9981v-1.8867h12.2647v1.8867h-4.9717Z"/><path class="cls-2" d="M168.6948,197.6254v6.7315h-2.2695v-6.7315l-5.3799-10.2763h2.50681l4.14849,8.0029,4.0683-8.0029h2.3067l-5.3809,10.2763Z"/><path class="cls-2" d="M193.106,204.6889c-4.4883,0-7.7266-3.6465-7.7266-8.7978,0-5.253,3.2129-8.8741,7.8545-8.8741,4.5381,0,7.7002,3.6211,7.7002,8.7471,0,5.3037-3.1875,8.9248-7.8281,8.9248ZM193.0806,188.9555c-3.2383,0-5.3555,2.7285-5.3555,6.8848,0,4.1308,2.37211,6.8848,5.4824,6.8848,3.5449,0,5.3809-3.0342,5.3809-7.0381,0-4.0547-2.2696-6.7315-5.5078-6.7315Z"/><path class="cls-2" d="M208.64399,189.2358v5.3545h6.5274v1.8359h-6.5274v7.9307h-2.2695v-17.0078h9.2051v1.8867h-6.9356Z"/><path class="cls-2" d="M64.6323,237.7856c0,10.8936-8.3887,18.7822-18.8808,18.7822-10.6817,0-18.8809-7.9902-18.8809-18.3808,0-10.8838,8.4004-18.7793,18.8809-18.7793,10.6953,0,18.8808,7.9843,18.8808,18.3779h0ZM58.5542,237.9858c0-9.8897-4.6992-16.5732-12.8027-16.5732-8.7872,0-12.7813,8.0869-12.7813,16.5732,0,9.8936,4.6953,16.6123,12.7813,16.6123,8.8007,0,12.8027-8.1055,12.8027-16.6123h0Z"/><path class="cls-2" d="M179.9292,237.7856c0,10.8936-8.39161,18.7822-18.88181,18.7822-10.6807,0-18.8804-7.9902-18.8804-18.3808,0-10.8838,8.395-18.7793,18.8804-18.7793,10.6875,0,18.88181,7.9843,18.88181,18.3779h0ZM173.8413,237.9858c0-9.8897-4.6963-16.5732-12.7939-16.5732-8.794,0-12.78719,8.0869-12.78719,16.5732,0,9.8936,4.69539,16.6123,12.78719,16.6123,8.791,0,12.7939-8.1055,12.7939-16.6123h0Z"/><path class="cls-2" d="M194.5161,238.0854h4.49411c6.794,0,8.19729-4.1728,8.19729-8.2793,0-3.0742-1.3027-5.584-4.4941-6.9863-1.7051-.7022-3.3028-.7998-5.4971-.7998h-2.7002v16.0654h0ZM202.71339,244.0053c-2.0996-3.0097-2.9004-3.914-5.4971-3.914h-2.7002v12.0048c0,1.004.2998,1.4981,1.499,1.7032l4.0987.7988v1.4111h-16.1797v-1.4111l3.6914-.7988c1.2031-.3057,1.4922-.6992,1.4922-1.7032v-28.1699c0-1.0049-.3887-1.5097-1.4922-1.709l-3.6914-.8046v-1.3985h15.7783c3.3027,0,5.5967.2969,7.4951,1.001,3.8926,1.499,6.0879,5.2119,6.0879,8.6885,0,4.4062-3.291,8.082-8.7891,9.3867v.2031c1.1036.4951,1.6993,1.208,5.5977,6.3096l4.9961,6.4931c.6953,1.004,1.499,1.7032,2.791,1.9063l3.4024.5957v1.4111h-8.6875c-1.004,0-1.5059-.3056-2.4024-1.5136l-7.4902-10.4903h0Z"/><path class="cls-2" d="M132.2764,232.4096h1.6982v11.9024h-1.6982l-.70319-3.419c-.289-1.2969-1.08981-1.8027-2.29391-1.8027h-8.6875v13.0058c0,1.004.2998,1.4981,1.4912,1.7032l4.1055.7988v1.4111h-16.1914v-1.4111l3.6914-.7988c1.205-.3057,1.5058-.6992,1.5058-1.7032v-28.1699c0-1.0049-.4023-1.5097-1.5058-1.709l-3.6914-.8046v-1.3985h27.2754v8.9863h-1.6934l-1.4043-5.0742c-.3994-1.4121-1.2031-1.9062-2.3994-1.9062h-11.1836v15.0615h8.6875c1.2041,0,2.00491-.4697,2.29391-1.7637l.70319-2.9082h0Z"/><path class="cls-2" d="M224.18989,256.0092v-1.4111l3.6934-.7988c1.2012-.3057,1.50191-.6992,1.50191-1.7032v-28.1699c0-1.0049-.40031-1.5097-1.50191-1.709l-3.6934-.8046v-1.3985h16.8868c4.5937,0,7.89251.5928,10.582,1.8028,6.8008,3.1123,9.8926,9.7929,9.8926,16.3701,0,6.416-2.3887,12.3965-8.4883,15.6123-2.7969,1.4961-6.6914,2.2099-11.7852,2.2099h-17.0879ZM234.68409,222.02v30.3681c0,1.3086.2969,1.6143,1.5976,1.6143h4.3946c4.1933,0,7.291-.5088,9.4902-2.1084,3.7002-2.7061,5.2969-7.3857,5.2969-13.6045,0-6.084-1.5967-11.8623-6.5938-14.7715-2.10739-1.2011-4.7969-1.498-8.9941-1.498h-5.1914Z"/><path class="cls-2" d="M78.8271,254.5981v1.4111h-12.894v-1.4111l3.1953-.6973c1.1992-.3066,2.1016-.6982,2.8067-1.6152l10.7963-13.792-10.7963-14.5674c-.7051-1.0049-1.6075-1.5097-2.7051-1.8086l-2.9903-.705v-1.3985h15.8892v1.3985l-3.4033.6074c-1.0938.1972-.9922.4941-.3877,1.2978l7.9814,11.3008h.2032l8.2871-11.1006c.6025-.8008.6025-1.2011-.3008-1.4004l-3.1914-.705v-1.3985h12.88081v1.3985l-3.18941.705c-1.2041.2989-2.1074.7022-2.8028,1.6035l-10.2792,12.8907,11.4775,15.4843c.7021,1.004,1.6045,1.4981,2.708,1.8047l2.9883.6973v1.4111h-15.8906v-1.4111l3.4111-.5957c1.0849-.2031.9834-.5088.3974-1.3105l-8.705-12.1905h-.19629l-8.89111,12.1905c-.6035.8017-.6993,1.0048.3984,1.2089l3.2026.6973h0Z"/><path class="cls-2" d="M188.50012,72.09179c0,.91998-.45001,1.41998-.90002,1.41998-.25,0-.37-.08997-.37-.54999v-2c0-.13.01001-.25.03003-.26001.03998-.01996.10999-.03998.22998-.03998.44,0,1.01001.31,1.01001,1.42999Z"/><path class="cls-2" d="M191.6101,70.59179c-.40002,0-.72998.46002-.72998,1.37,0,.94.34998,1.63.85999,1.63.45001,0,.69-.42999.69-1.37,0-1.04999-.37-1.63-.82001-1.63ZM191.6101,70.59179c-.40002,0-.72998.46002-.72998,1.37,0,.94.34998,1.63.85999,1.63.45001,0,.69-.42999.69-1.37,0-1.04999-.37-1.63-.82001-1.63ZM191.6101,70.59179c-.40002,0-.72998.46002-.72998,1.37,0,.94.34998,1.63.85999,1.63.45001,0,.69-.42999.69-1.37,0-1.04999-.37-1.63-.82001-1.63ZM191.6101,70.59179c-.40002,0-.72998.46002-.72998,1.37,0,.94.34998,1.63.85999,1.63.45001,0,.69-.42999.69-1.37,0-1.04999-.37-1.63-.82001-1.63ZM191.6101,70.59179c-.40002,0-.72998.46002-.72998,1.37,0,.94.34998,1.63.85999,1.63.45001,0,.69-.42999.69-1.37,0-1.04999-.37-1.63-.82001-1.63ZM191.6101,70.59179c-.40002,0-.72998.46002-.72998,1.37,0,.94.34998,1.63.85999,1.63.45001,0,.69-.42999.69-1.37,0-1.04999-.37-1.63-.82001-1.63ZM191.6101,70.59179c-.40002,0-.72998.46002-.72998,1.37,0,.94.34998,1.63.85999,1.63.45001,0,.69-.42999.69-1.37,0-1.04999-.37-1.63-.82001-1.63ZM191.6101,70.59179c-.40002,0-.72998.46002-.72998,1.37,0,.94.34998,1.63.85999,1.63.45001,0,.69-.42999.69-1.37,0-1.04999-.37-1.63-.82001-1.63ZM191.6101,70.59179c-.40002,0-.72998.46002-.72998,1.37,0,.94.34998,1.63.85999,1.63.45001,0,.69-.42999.69-1.37,0-1.04999-.37-1.63-.82001-1.63ZM191.6101,70.59179c-.40002,0-.72998.46002-.72998,1.37,0,.94.34998,1.63.85999,1.63.45001,0,.69-.42999.69-1.37,0-1.04999-.37-1.63-.82001-1.63ZM191.6101,70.59179c-.40002,0-.72998.46002-.72998,1.37,0,.94.34998,1.63.85999,1.63.45001,0,.69-.42999.69-1.37,0-1.04999-.37-1.63-.82001-1.63ZM191.6101,70.59179c-.40002,0-.72998.46002-.72998,1.37,0,.94.34998,1.63.85999,1.63.45001,0,.69-.42999.69-1.37,0-1.04999-.37-1.63-.82001-1.63ZM191.6101,70.59179c-.40002,0-.72998.46002-.72998,1.37,0,.94.34998,1.63.85999,1.63.45001,0,.69-.42999.69-1.37,0-1.04999-.37-1.63-.82001-1.63ZM191.6101,70.59179c-.40002,0-.72998.46002-.72998,1.37,0,.94.34998,1.63.85999,1.63.45001,0,.69-.42999.69-1.37,0-1.04999-.37-1.63-.82001-1.63ZM191.6101,70.59179c-.40002,0-.72998.46002-.72998,1.37,0,.94.34998,1.63.85999,1.63.45001,0,.69-.42999.69-1.37,0-1.04999-.37-1.63-.82001-1.63ZM191.6101,70.59179c-.40002,0-.72998.46002-.72998,1.37,0,.94.34998,1.63.85999,1.63.45001,0,.69-.42999.69-1.37,0-1.04999-.37-1.63-.82001-1.63ZM191.6101,70.59179c-.40002,0-.72998.46002-.72998,1.37,0,.94.34998,1.63.85999,1.63.45001,0,.69-.42999.69-1.37,0-1.04999-.37-1.63-.82001-1.63ZM191.6101,70.59179c-.40002,0-.72998.46002-.72998,1.37,0,.94.34998,1.63.85999,1.63.45001,0,.69-.42999.69-1.37,0-1.04999-.37-1.63-.82001-1.63ZM191.6101,70.59179c-.40002,0-.72998.46002-.72998,1.37,0,.94.34998,1.63.85999,1.63.45001,0,.69-.42999.69-1.37,0-1.04999-.37-1.63-.82001-1.63ZM191.6101,70.59179c-.40002,0-.72998.46002-.72998,1.37,0,.94.34998,1.63.85999,1.63.45001,0,.69-.42999.69-1.37,0-1.04999-.37-1.63-.82001-1.63ZM202.28009,72.21178c0-2.09998-.70996-3.78998-2.23999-4.69-.96997-.57001-2.27002-.75-3.88-.75h-11.64001v23.60999h12.68005c2.92999,0,4.65997.66003,4.81,3.29004h.27997l-.01001-21.46002ZM193.70013,73.58178c.25-.01996.34998-.07001.37994-.26996.02002-.16003.05005-.43005.08002-.91003l.06-1.04999c.03003-.65002-.01001-.71002-.41998-.75v-.20001h1.22998l.91003,2.06.78998-2.06h1.27002v.20001c-.40002.03998-.42004.06-.40002.60999l.04999,1.73999c.01001.58002.02002.59003.40002.63v.20001h-1.63v-.20001c.39001-.03998.40997-.04999.40002-.63l-.01001-1.82996h-.03003l-1,2.60999h-.27997l-.95001-2.42999h-.01001l-.03998,1.15997c-.02002.44-.01001.69.01001.85004.01996.19995.13.23999.46997.26996v.20001h-1.27997v-.20001ZM196.65008,78.70177l-.07996-.03998c-.42999-.20001-.91003-.47003-.91003-1.02002,0-.58997.41998-1.07001,1.23999-1.07001.16003,0,.33002.02002.48004.06.12.03003.19995.05005.26996.07001.02002.21002.06.46002.12.82001l-.22998.03003c-.12-.34003-.29999-.71002-.71002-.71002-.26996,0-.44995.20001-.44995.45001,0,.26001.19995.40997.52997.56l.12.06c.48004.21997.89001.47998.89001,1.09003,0,.63995-.52002,1.10999-1.32001,1.10999-.20996,0-.42999-.04004-.57001-.09003-.14996-.04999-.26001-.08997-.32996-.13-.04004-.22998-.10004-.51001-.17004-.85999l.23004-.07001c.10999.29999.41998.88.92999.88.26996,0,.47998-.17999.47998-.52002,0-.29999-.21002-.47998-.52002-.62ZM193.22009,77.12182c.09003.28998.51001,1.31995.70001,1.82996.15997-.44995.48999-1.44.58002-1.67999.10999-.32001.07001-.38-.16003-.39996l-.15997-.02002v-.20001h1.26001v.20001c-.29004.03998-.37.06-.57001.53998-.03003.07001-.66003,1.61005-1.06,2.67999h-.40002c-.35999-.94-.83997-2.22998-1.02997-2.71997-.17004-.44-.28003-.47003-.53003-.5v-.20001h1.67999v.20001l-.16998.02002c-.20001.01996-.20001.06995-.14001.25ZM191.71008,70.32177c.96002,0,1.69.70001,1.69,1.73004,0,1.12-.75995,1.81-1.75995,1.81-1.05005,0-1.73004-.76001-1.73004-1.72003,0-.84998.56-1.82001,1.79999-1.82001ZM185.93011,73.78179v-.20001c.38-.02997.41998-.07001.41998-.63v-1.71997c0-.56-.03998-.60004-.38-.63v-.20001h1.52002c.64001,0,1.16998.13,1.52002.46002.23999.23999.44995.62.44995,1.07001,0,1.29999-.98999,1.84998-2.19,1.84998h-1.33997ZM189.39013,83.1018c-.36005.02997-.40002.06-.40002.63v1.70996c0,.56006.03998.60004.40002.63v.21002h-1.69v-.21002c.35999-.02997.39996-.06995.39996-.63v-1.70996c0-.57001-.03998-.60004-.39996-.63v-.21002h1.69v.21002ZM189.47009,80.03179h-1.28998v-.20001c.22998-.01001.35999-.08997.39001-.26996.01996-.16003.03998-.45001.03998-.99005v-.95996c0-.39001-.01001-.45001-.12-.60004-.07001-.10999-.20001-.13995-.39001-.15997v-.20001h1.15002l1.72998,2.16003h.01001v-.70001c0-.54999-.02002-.83002-.03998-.98999-.02002-.19-.17004-.25-.51001-.27002v-.20001h1.32996v.20001c-.25995.01001-.39996.08002-.41998.27002-.02002.15997-.03998.44-.03998.98999v1.95996h-.45001l-1.92999-2.45996h-.01001v.95996c0,.54004.02002.83002.03998.99005.03003.17999.17004.25.51001.26996v.20001ZM192.31012,86.28179h-2.58002v-.21002c.40002-.02997.44-.06995.44-.63v-1.70996c0-.57001-.03998-.60004-.39001-.63v-.21002h1.69v.21002c-.38.02997-.41998.06-.41998.63v1.77997c0,.27002.01001.40002.10999.45001.08002.04004.20001.04004.35999.04004.17004,0,.39001-.01001.5-.15002.08002-.09003.17004-.22998.25-.51001l.23004.03998c-.03003.19-.14001.74005-.19.90002ZM195.22009,86.28179h-2.58997v-.21002c.39996-.02997.44-.06995.44-.63v-1.70996c0-.57001-.04004-.60004-.39001-.63v-.21002h1.69v.21002c-.37.02997-.41003.06-.41003.63v1.77997c0,.27002.01001.40002.10004.45001.08002.04004.20001.04004.35999.04004.16998,0,.40002-.01001.5-.15002.09003-.09003.17999-.22998.26001-.51001l.21997.03998c-.02997.19-.13995.74005-.17999.90002ZM198.47009,83.1018c-.28998.02997-.37.06-.57001.52997-.02997.08002-.65997,1.62006-1.04999,2.68005h-.40997c-.36005-.93005-.84003-2.22003-1.03003-2.71002-.16998-.45001-.27997-.47003-.52997-.5v-.21002h1.67999v.21002l-.16998.02002c-.20001.01996-.20001.06-.14001.25.09998.28998.51001,1.31.70001,1.81995.15997-.43994.48999-1.42999.57996-1.67999.11005-.32001.07001-.37-.15997-.39996l-.15002-.01001v-.21002h1.25v.21002ZM200.09008,70.6018c-.35999.02997-.39996.07001-.39996.63v1.71997c0,.56.03998.60004.39996.63v.20001h-1.69v-.20001c.36005-.02997.40002-.07001.40002-.63v-1.71997c0-.56-.03998-.60004-.40002-.63v-.20001h1.69v.20001ZM191.74011,73.59179c.45001,0,.69-.42999.69-1.37,0-1.04999-.37-1.63-.82001-1.63-.40002,0-.72998.46002-.72998,1.37,0,.94.34998,1.63.85999,1.63ZM191.6101,70.59179c-.40002,0-.72998.46002-.72998,1.37,0,.94.34998,1.63.85999,1.63.45001,0,.69-.42999.69-1.37,0-1.04999-.37-1.63-.82001-1.63ZM191.6101,70.59179c-.40002,0-.72998.46002-.72998,1.37,0,.94.34998,1.63.85999,1.63.45001,0,.69-.42999.69-1.37,0-1.04999-.37-1.63-.82001-1.63ZM191.6101,70.59179c-.40002,0-.72998.46002-.72998,1.37,0,.94.34998,1.63.85999,1.63.45001,0,.69-.42999.69-1.37,0-1.04999-.37-1.63-.82001-1.63ZM191.6101,70.59179c-.40002,0-.72998.46002-.72998,1.37,0,.94.34998,1.63.85999,1.63.45001,0,.69-.42999.69-1.37,0-1.04999-.37-1.63-.82001-1.63ZM191.6101,70.59179c-.40002,0-.72998.46002-.72998,1.37,0,.94.34998,1.63.85999,1.63.45001,0,.69-.42999.69-1.37,0-1.04999-.37-1.63-.82001-1.63ZM191.6101,70.59179c-.40002,0-.72998.46002-.72998,1.37,0,.94.34998,1.63.85999,1.63.45001,0,.69-.42999.69-1.37,0-1.04999-.37-1.63-.82001-1.63ZM191.6101,70.59179c-.40002,0-.72998.46002-.72998,1.37,0,.94.34998,1.63.85999,1.63.45001,0,.69-.42999.69-1.37,0-1.04999-.37-1.63-.82001-1.63ZM191.6101,70.59179c-.40002,0-.72998.46002-.72998,1.37,0,.94.34998,1.63.85999,1.63.45001,0,.69-.42999.69-1.37,0-1.04999-.37-1.63-.82001-1.63ZM191.6101,70.59179c-.40002,0-.72998.46002-.72998,1.37,0,.94.34998,1.63.85999,1.63.45001,0,.69-.42999.69-1.37,0-1.04999-.37-1.63-.82001-1.63ZM191.6101,70.59179c-.40002,0-.72998.46002-.72998,1.37,0,.94.34998,1.63.85999,1.63.45001,0,.69-.42999.69-1.37,0-1.04999-.37-1.63-.82001-1.63ZM191.6101,70.59179c-.40002,0-.72998.46002-.72998,1.37,0,.94.34998,1.63.85999,1.63.45001,0,.69-.42999.69-1.37,0-1.04999-.37-1.63-.82001-1.63ZM191.6101,70.59179c-.40002,0-.72998.46002-.72998,1.37,0,.94.34998,1.63.85999,1.63.45001,0,.69-.42999.69-1.37,0-1.04999-.37-1.63-.82001-1.63ZM191.6101,70.59179c-.40002,0-.72998.46002-.72998,1.37,0,.94.34998,1.63.85999,1.63.45001,0,.69-.42999.69-1.37,0-1.04999-.37-1.63-.82001-1.63ZM191.6101,70.59179c-.40002,0-.72998.46002-.72998,1.37,0,.94.34998,1.63.85999,1.63.45001,0,.69-.42999.69-1.37,0-1.04999-.37-1.63-.82001-1.63ZM191.6101,70.59179c-.40002,0-.72998.46002-.72998,1.37,0,.94.34998,1.63.85999,1.63.45001,0,.69-.42999.69-1.37,0-1.04999-.37-1.63-.82001-1.63ZM191.6101,70.59179c-.40002,0-.72998.46002-.72998,1.37,0,.94.34998,1.63.85999,1.63.45001,0,.69-.42999.69-1.37,0-1.04999-.37-1.63-.82001-1.63ZM191.6101,70.59179c-.40002,0-.72998.46002-.72998,1.37,0,.94.34998,1.63.85999,1.63.45001,0,.69-.42999.69-1.37,0-1.04999-.37-1.63-.82001-1.63ZM191.6101,70.59179c-.40002,0-.72998.46002-.72998,1.37,0,.94.34998,1.63.85999,1.63.45001,0,.69-.42999.69-1.37,0-1.04999-.37-1.63-.82001-1.63Z"/><path class="cls-2" d="M216.0401,76.95177c-.39996,0-.72998.46002-.72998,1.37,0,.94.34998,1.63.85999,1.63.45001,0,.69-.42999.69-1.37,0-1.04999-.37-1.63-.82001-1.63ZM218.24011,71.57177h-.02002l-.32001.99005h.67004l-.33002-.99005ZM218.24011,71.57177h-.02002l-.32001.99005h.67004l-.33002-.99005ZM216.0401,76.95177c-.39996,0-.72998.46002-.72998,1.37,0,.94.34998,1.63.85999,1.63.45001,0,.69-.42999.69-1.37,0-1.04999-.37-1.63-.82001-1.63ZM216.0401,76.95177c-.39996,0-.72998.46002-.72998,1.37,0,.94.34998,1.63.85999,1.63.45001,0,.69-.42999.69-1.37,0-1.04999-.37-1.63-.82001-1.63ZM218.24011,71.57177h-.02002l-.32001.99005h.67004l-.33002-.99005ZM218.24011,71.57177h-.02002l-.32001.99005h.67004l-.33002-.99005ZM216.0401,76.95177c-.39996,0-.72998.46002-.72998,1.37,0,.94.34998,1.63.85999,1.63.45001,0,.69-.42999.69-1.37,0-1.04999-.37-1.63-.82001-1.63ZM216.0401,76.95177c-.39996,0-.72998.46002-.72998,1.37,0,.94.34998,1.63.85999,1.63.45001,0,.69-.42999.69-1.37,0-1.04999-.37-1.63-.82001-1.63ZM218.24011,71.57177h-.02002l-.32001.99005h.67004l-.33002-.99005ZM218.24011,71.57177h-.02002l-.32001.99005h.67004l-.33002-.99005ZM216.0401,76.95177c-.39996,0-.72998.46002-.72998,1.37,0,.94.34998,1.63.85999,1.63.45001,0,.69-.42999.69-1.37,0-1.04999-.37-1.63-.82001-1.63ZM210.44012,66.77178c-1.61005,0-2.92004.17999-3.88.75-1.54004.90002-2.25,2.59003-2.25,4.69v21.46002h.27997c.15002-2.63,1.88-3.29004,4.81-3.29004h12.76001v-23.60999h-11.71997ZM213.18011,70.51177h1.14996l1.73004,2.16003h.01001v-.69c0-.54999-.02002-.84003-.04004-1-.02997-.17999-.16998-.25-.51001-.26001v-.21002h1.33002v.21002c-.26001.01001-.39996.08002-.41998.26001-.02002.15997-.04999.45001-.04999,1v1.95001h-.44l-1.92999-2.45001h-.01001v.95001c0,.54999.01996.83997.03998,1,.03003.17999.16998.25.51001.25995v.21002h-1.28998v-.21002c.22998-.00995.35999-.07996.38995-.25995.02002-.16003.04004-.45001.04004-1v-.95001c0-.39001-.01001-.46002-.12-.60004-.07001-.10999-.20001-.14996-.39001-.15997v-.21002ZM217.83007,78.4118c0,1.10999-.75995,1.81-1.75995,1.81-1.05005,0-1.73004-.76001-1.73004-1.71997,0-.84003.56-1.82001,1.81-1.82001.95001,0,1.67999.69995,1.67999,1.72998ZM213.91009,79.94176v.20001h-1.69v-.20001c.35999-.02997.40002-.06995.40002-.62994v-1.72003c0-.56-.04004-.59998-.40002-.63v-.20001h1.69v.20001c-.35999.03003-.39996.07001-.39996.63v1.72003c0,.56.03998.59998.39996.62994ZM211.2301,73.69176c.35999-.02997.40002-.06.40002-.62994v-1.71002c0-.57001-.04004-.59998-.40002-.63v-.21002h1.67999v.21002c-.35999.03003-.39996.06-.39996.63v1.71002c0,.56995.03998.59998.39996.62994v.21002h-1.67999v-.21002ZM211.26013,79.94176v.20001h-1.82001v-.20001c.40997-.02997.45001-.06995.45001-.62994v-2.28003h-.08002c-.35004,0-.48999.06-.58002.15997-.06.07001-.12.21002-.19.5h-.21997c.01996-.43994.04999-.78998.06-1.06h.16998c.07001.12006.13.13.27002.13h2.07001c.13995,0,.15997-.02997.25-.13h.15997c.01001.22003.02997.66003.06,1.05005l-.22998.00995c-.08002-.31-.14001-.44995-.22003-.52997-.08002-.09998-.26001-.13-.51001-.13h-.12v2.28003c0,.56.04004.59998.48004.62994ZM207.81012,73.90179h-1.29004v-.21002c.25-.01996.35004-.06995.38-.25995.03003-.16003.06-.44.08002-.91003l.06-1.04999c.03998-.65997,0-.71997-.40997-.75v-.21002h1.21997l.91003,2.06.79999-2.06h1.26001v.21002c-.39001.03003-.42004.04999-.40002.59998l.04999,1.74005c.02002.57996.03003.59998.40002.62994v.21002h-1.63v-.21002c.39001-.02997.40997-.04999.40002-.62994l-.01001-1.83002h-.02002l-1.01001,2.60999h-.27997l-.95001-2.42999h-.01001l-.03998,1.15997c-.01001.45001-.01001.70001.00995.86005.02002.19.14001.23999.48004.25995v.21002ZM212.37011,86.39178h-1.63v-.20001c.39001-.03998.40002-.06.40002-.62994l-.02002-1.84003h-.02002l-1,2.60999h-.27997l-.96002-2.41998h-.01001l-.02997,1.15002c-.02002.44995-.01001.69995.00995.85999.02002.19.13.23999.47003.26996v.20001h-1.28003v-.20001c.25-.01996.34003-.07996.38-.26996.02002-.16003.05005-.44.08002-.91003l.06-1.04999c.03003-.65997-.01001-.70996-.41998-.75v-.20001h1.21997l.91003,2.06.79999-2.06h1.27002v.20001c-.40002.04004-.42004.06-.41003.60004l.06,1.75c.01001.56995.02002.58997.40002.62994v.20001ZM215.33007,86.39178h-2.64996v-.20001c.39996-.02997.44-.06995.44-.62994v-1.72003c0-.56-.04004-.59998-.39001-.63v-.20001h2.47003c0,.08002.02997.46002.06.86005l-.23004.00995c-.06-.25-.10999-.39996-.20001-.47998-.07996-.08997-.25-.12-.52997-.12h-.08002c-.20001,0-.20996,0-.20996.17999v1h.25995c.45001,0,.46002-.02997.51001-.41998h.23004v1.21997h-.23004c-.04999-.44995-.06-.47998-.51001-.47998h-.25995v.84003c0,.27997.00995.39996.09998.44995.08002.04004.20001.05005.35999.05005.21002,0,.44-.03003.56-.16003.09003-.08997.17004-.27997.25-.52997l.23004.02997c-.02002.26001-.13.79004-.18005.92999ZM218.97009,86.39178h-1.63v-.20001l.16003-.01996c.19-.03003.20001-.08002.13-.27002l-.19-.52997h-.85004l-.15997.5c-.07001.21997-.07001.26996.16998.29999l.16003.01996v.20001h-1.22003v-.20001c.27002-.03998.35004-.06.52002-.5l1.03998-2.68994.35999-.07001.35004.97998c.22998.62.45001,1.23999.64996,1.77002.16003.44995.26001.47998.51001.50995v.20001ZM220.20013,73.90179h-1.64001v-.21002l.15997-.01996c.19-.02002.20001-.08002.13-.26001l-.19-.53003h-.84998l-.16003.5c-.06.22003-.06.27002.17999.30005l.15002.00995v.21002h-1.21997v-.21002c.26996-.02997.34998-.04999.51996-.48999l1.04004-2.69.35999-.07001.34998.98004c.23004.62.45001,1.22998.65002,1.76001.16998.45996.26001.47998.52002.50995v.21002ZM218.22009,71.57177l-.32001.99005h.67004l-.33002-.99005h-.02002ZM217.00012,84.06182l-.32001,1h.65997l-.32001-1h-.01996ZM215.31012,78.32177c0,.94.34998,1.63.85999,1.63.45001,0,.69-.42999.69-1.37,0-1.04999-.37-1.63-.82001-1.63-.39996,0-.72998.46002-.72998,1.37ZM216.0401,76.95177c-.39996,0-.72998.46002-.72998,1.37,0,.94.34998,1.63.85999,1.63.45001,0,.69-.42999.69-1.37,0-1.04999-.37-1.63-.82001-1.63ZM218.24011,71.57177h-.02002l-.32001.99005h.67004l-.33002-.99005ZM218.24011,71.57177h-.02002l-.32001.99005h.67004l-.33002-.99005ZM216.0401,76.95177c-.39996,0-.72998.46002-.72998,1.37,0,.94.34998,1.63.85999,1.63.45001,0,.69-.42999.69-1.37,0-1.04999-.37-1.63-.82001-1.63ZM216.0401,76.95177c-.39996,0-.72998.46002-.72998,1.37,0,.94.34998,1.63.85999,1.63.45001,0,.69-.42999.69-1.37,0-1.04999-.37-1.63-.82001-1.63ZM218.24011,71.57177h-.02002l-.32001.99005h.67004l-.33002-.99005ZM218.24011,71.57177h-.02002l-.32001.99005h.67004l-.33002-.99005ZM216.0401,76.95177c-.39996,0-.72998.46002-.72998,1.37,0,.94.34998,1.63.85999,1.63.45001,0,.69-.42999.69-1.37,0-1.04999-.37-1.63-.82001-1.63ZM218.24011,71.57177h-.02002l-.32001.99005h.67004l-.33002-.99005ZM218.24011,71.57177h-.02002l-.32001.99005h.67004l-.33002-.99005Z"/><path class="cls-2" d="M224.75149,68.2724v25.3057h-18.4248l-.253.625c-.2998.7402-.8408,1.4258-2.7568,1.4258-1.9141,0-2.4551-.6856-2.7549-1.4258l-.2519-.625h-18.3672v-25.3057h-2v.6543l-1.4024-.4307c-.2051-.623-.7851-1.0751-1.4765-1.0751-.8614,0-1.5635.7001-1.5635,1.5634s.7021,1.5635,1.5635,1.5635c.3584,0,.6855-.126.94921-.3301l1.92969.5918v1.9317l-1.38769-.2491c-.23931-.5058-.73641-.8701-1.333-.8994-.86141-.041-1.59571.6231-1.63681,1.4864-.0419.8623.625,1.5947,1.4864,1.6357.4531.0225.8672-.1553,1.1679-.4502l1.7032.3057v1.9756l-1.4561-.0645c-.2783-.4326-.7607-.7207-1.3125-.7207-.8613,0-1.5635.7002-1.5635,1.5625,0,.8633.7022,1.5635,1.5635,1.5635.501,0,.9424-.2403,1.2285-.6074l1.5401.0673v2.1485l-1.5049.0537c-.2862-.3721-.7315-.6172-1.2363-.6172-.8614,0-1.56249.7002-1.56249,1.5625s.70109,1.5625,1.56249,1.5625c.5468,0,1.0273-.2822,1.3056-.709l1.4356-.0517v1.9785l-1.6631.2861c-.2832-.2832-.6738-.459-1.1055-.459-.8613,0-1.5635.7002-1.5635,1.5625,0,.8643.7022,1.5625,1.5635,1.5625.6211,0,1.1543-.3652,1.4063-.8906l1.3623-.2344v1.9365l-1.84569.5635c-.26471-.2041-.59091-.3301-.95021-.3301-.8623,0-1.5635.6993-1.5635,1.5625,0,.8643.7012,1.5635,1.5635,1.5635.6904,0,1.2705-.4512,1.4765-1.0742l1.3194-.4033v1.8633l-2.0625.8896c-.2549-.1572-.5577-.2422-.8789-.2295-.8614.0342-1.5342.7617-1.5,1.624.0341.8633.7646,1.5342,1.625,1.5.7285-.0293,1.3164-.5556,1.4609-1.2392l1.3555-.585v1.835h19.1338c.81251,1.3496,2.1826,2.0508,4.2402,2.0508,2.0596,0,3.4297-.7012,4.2422-2.0508h19.1924v-27.3057h-2Z"/><path class="cls-2" d="M190.7778,60.0615c-3.8525,0-6.97559.5996-6.97559,1.3379,0,.7402,3.12309,1.3379,6.97559,1.3379,3.8516,0,6.9746-.5977,6.9746-1.3379,0-.7383-3.123-1.3379-6.9746-1.3379Z"/><path class="cls-2" d="M200.38229,51.4209l-4.0273,2.83-.0342.2871.957.4297c.1895.0948.19141.2471.0948.3389l-2.5303,2.1348-.2403-.0205-1.791-2.6416c-.124-.1709-.0791-.3418.1367-.378l1.2032-.1963v-.3037l-3.1182-4.4053h-.5127l-3.1172,4.4053v.3037l1.2032.1963c.2148.0362.2597.2071.1367.378l-1.793,2.6416-.2402.0205-2.3614-2.1348c-.0966-.0918-.0947-.2441.0938-.3389l.958-.4297-.0352-.2871-4.1943-2.83-.3398.1337,2.4629,7.5245c1.25-.5616,4.121-.9571,7.4824-.9727,3.36231.0156,6.2334.4111,7.4834.9727l2.46291-7.5245-.33991-.1337Z"/><path class="cls-2" d="M203.28859,110.5185c-3.8535,0-6.9756.5986-6.9756,1.3379s3.1221,1.3379,6.9756,1.3379c3.85061,0,6.97361-.5986,6.97361-1.3379s-3.123-1.3379-6.97361-1.3379Z"/><path class="cls-2" d="M212.89209,101.8779l-4.0274,2.8301-.0341.2871.957.4297c.1894.0947.1914.247.0947.3388l-2.5293,2.1348-.2402-.0215-1.792-2.6406c-.1231-.1719-.0791-.3418.1377-.3779l1.2021-.1963v-.3037l-3.1171-4.4053h-.5137l-3.1172,4.4053v.3037l1.2031.1963c.2158.0361.2608.206.1367.3779l-1.792,2.6406-.24019.0215-2.36231-2.1348c-.09669-.0918-.09469-.2441.0938-.3388l.958-.4297-.0352-.2871-4.1934-2.8301-.3398.1328,2.46191,7.5244c1.25-.5615,4.12109-.957,7.48339-.9726,3.3623.0156,6.2334.4111,7.4834.9726l2.4619-7.5244-.3398-.1328Z"/><path class="cls-2" d="M215.76809,60.0615c-3.8526,0-6.9756.5996-6.9756,1.3379,0,.7402,3.123,1.3379,6.9756,1.3379,3.8515,0,6.9736-.5977,6.9736-1.3379,0-.7383-3.1221-1.3379-6.9736-1.3379Z"/><path class="cls-2" d="M225.37159,51.4209l-4.02639,2.83-.03511.2871.957.4297c.1894.0948.1914.2471.0947.3389l-2.5293,2.1348-.2402-.0205-1.791-2.6416c-.12409-.1709-.08009-.3418.1367-.378l1.2031-.1963v-.3037l-3.1182-4.4053h-.51269l-3.11711,4.4053v.3037l1.20311.1963c.21479.0362.25979.2071.13669.378l-1.793,2.6416-.2402.0205-2.3613-2.1621c-.0967-.0918-.0957-.2442.0937-.3389l.958-.4024-.0361-.2871-4.1934-2.83-.3398.1337,2.4629,7.5245c1.249-.5616,4.1201-.9571,7.4824-.9727,3.3623.0156,6.2334.4111,7.4834.9727l2.4619-7.5245-.3398-.1337Z"/><path class="cls-2" d="M204.66359,31.1669c0,.7901-.6407,1.4297-1.4307,1.4297s-1.43069-.6396-1.43069-1.4297c0-.79.64069-1.4306,1.43069-1.4306s1.4307.6406,1.4307,1.4306Z"/><path class="cls-2" d="M238.06589,44.5029c-.041.79-.7148,1.3955-1.5029,1.3535-.7891-.04-1.3955-.7129-1.3555-1.5029.041-.7862.7149-1.3936,1.5029-1.3526.7891.0401,1.3956.7139,1.3555,1.502Z"/><path class="cls-2" d="M198.53859,129.248c0,.79-.6407,1.4307-1.4307,1.4307s-1.43069-.6407-1.43069-1.4307c0-.791.64069-1.4316,1.43069-1.4316s1.4307.6406,1.4307,1.4316Z"/><path class="cls-2" d="M212.62649,131.5585c0,.7901-.6407,1.4307-1.4307,1.4307s-1.4307-.6406-1.4307-1.4307c0-.79.6407-1.4296,1.4307-1.4296s1.4307.6396,1.4307,1.4296Z"/><path class="cls-2" d="M164.9819,102.2968c.48831.003,1.8741.1367,3.0469,1.8037.48241.6866.8242,1.4952.8223,2.3418-.002,1.4004-.6846,2.21-2.3282,3.3662l-4.3593,3.0762-1.1856-1.6865,4.8819-3.4443c.4511-.3174,1.0537-.8399,1.0546-1.5098.001-.3691-.0498-.6689-.3837-1.1445-.51759-.7354-1.05959-.7989-1.4034-.7989-.5185-.0009-1.0078.3116-2.0576,1.0498l-4.2305,2.7579-1.1523-1.6387,4.49221-2.9404c1.18649-.835,1.95209-1.2364,2.80269-1.2325Z"/><path class="cls-2" d="M157.2183,98.3115l5.9677-2.3428.6436,1.6748-9.0098,3.4922-.6377-1.7461,4.6612-5.9365-6.0108,2.1006-.6416-1.7588,9.0918-3.1797.60351,1.6504-4.66791,6.0459Z"/><path class="cls-2" d="M150.7427,86.3261l9.5703-1.456.3105,2.0371-9.57129,1.456-.30951-2.0371Z"/><path class="cls-2" d="M159.9702,78.5156l-9.81441,2.9414.0878-2.0752,7.3624-1.9834-7.167-2.6406.0859-2.0166,9.53031,3.7734-.085,2.001Z"/><path class="cls-2" d="M151.5513,67.5009l1.6045-5.6406,1.5918.4531-1.0489,3.6856,2.1641.6162.9853-3.4619,1.5625.4433-.9853,3.4629,2.373.6758,1.0811-3.7978,1.6201.4609-1.6367,5.7519-9.3115-2.6494Z"/><path class="cls-2" d="M166.3345,56.6406l-2.8672-.2539c-1.3584-.126-1.4903.1992-1.87209.8847l-.11331.2022,3.40331,1.8096-1.01071,1.79-8.5117-4.6592,1.3945-2.4492c.62991-1.1289,1.3008-2.3281,3.00391-2.3281,1.07029,0,2.55759.8994,2.55759,2.5156,0,.2861-.0693.5898-.1884.9072.38281-.5517,1.0761-.6338,1.705-.6269.3506.0039.6934.0556.9766.0801l2.583.2265-1.0605,1.9014ZM159.188,53.7089c-.4942.1397-.75.5205-1.1172,1.1797l-.3184.5489,2.3477,1.2656.3965-.71c.332-.5957.4052-.9375.2881-1.3515-.0899-.3164-.3868-.6485-.6778-.8106-.34269-.1904-.6816-.1894-.9189-.1221Z"/><path class="cls-2" d="M170.6226,37.5791l1.6455-1.2403,5.82611,7.7315-1.64551,1.2402-5.8261-7.7314Z"/><path class="cls-2" d="M181.4858,32.7793l3.6787,7.1337-1.832.9454-3.6787-7.1338-2.3603,1.2177-.7579-1.4707,6.5411-3.373.7578,1.4707-2.3487,1.21Z"/><path class="cls-2" d="M192.8159,33.2968l.9346,3.7461-1.916.4776-.9336-3.7471-4.3643-4.9102,2.0283-.5058,2.8858,3.3779.9717-4.3467,1.9453-.4765-1.5518,6.3847Z"/><path class="cls-2" d="M227.85889,36.7744l3.0556,1.8193-.831,1.3975-3.0557-1.8194-2.123,3.5664-1.7461-1.039,4.9521-8.3194,4.9639,2.9561-.8467,1.4209-3.21679-1.915-1.15231,1.9326Z"/><path class="cls-2" d="M245.25829,68.2265l2.6465-2.9121-3.8438-.9092-.63379-2.0224,5.71589,1.4931,3.583-4.1943.664,2.1191-2.459,2.6856,3.5704.8594.6201,1.9804-5.3125-1.4228-3.8906,4.4287-.6602-2.1055h0Z"/><path class="cls-2" d="M254.51899,75.1279l-2.2451.1806.23831,3.5762-1.623.1084-.23831-3.5478-4.1416.2793-.1377-1.9444,9.6621-.791.3867,5.8213-1.6514.1104-.25-3.793h0Z"/><path class="cls-2" d="M261.32269,79.8769c.2598-31.9375-25.5566-58.1309-57.5498-58.3896-14.9492-.1211-29.1914,5.4248-40.1035,15.6152-11.7265,10.9521-18.2568,25.8096-18.3867,41.8359-.1553,19.1075,9.1143,36.9951,24.8027,47.9532,1.4883,6.206,7.09181,10.8388,13.7745,10.8388,1.9111,0,3.7646-.374,5.5107-1.1074,1.8604.5898,3.76761,1.0879,5.6699,1.4873-.6172,1.7002-1.4931,3.3018-2.3467,4.752l1.3887,1.3886c.332-.2207.72271-.3281,1.1133-.33,1.0625,0,2.0791.727,2.0713,2.0385,0,1.0655-.7188,2.0635-2.21189,2.0625-.81061-.0009-1.85941-.4277-2.42481-1.6396,0,0-.377,1.1806-.377,2.6025,0,4.3067,4.6797,9.0469,10.9434,11.0313,6.2988-1.9688,10.9599-6.7246,10.9599-11.0313,0-1.4219-.3759-2.6025-.3759-2.6025-.5665,1.2119-1.6143,1.6387-2.4248,1.6396-1.4932.001-2.2129-.997-2.2129-2.0625-.00789-1.3115,1.0087-2.0385,2.0712-2.0385.3917.0019.7813.1093,1.1143.33l1.2754-1.2675.03221-.0186.05369-.0674c.0049.0039.0118.0049.0176.0098l.002-.0352.0078-.0097-.0059-.0098v-.0029c-.6269-1.501-1.084-2.8692-1.40619-4.1748,10.38769-1.4239,19.15719-5.835,26.13669-13.1719l-.0098-.0137c14.4033-10.9502,22.7442-27.5195,22.8906-45.6123ZM183.8599,135.7812c-6.6846,0-12.1221-5.457-12.1221-12.165,0-2.0967.5312-4.0703,1.4658-5.794.6201.5625,1.2822,1.1475,1.9697,1.7383-.5908,1.2461-.9306,2.6309-.9306,4.0977,0,3.6416,1.8359,6.6494,5.3076,8.6972,2.0146,1.1885,4.3008,2.2588,6.7217,3.1865-.7881.1592-1.59379.2393-2.4121.2393ZM203.3022,118.0185c-2.26661,0-4.50091-.2051-6.69721-.5889-2.3653-4.8193-7.3545-7.9287-12.7451-7.9287-1.3819,0-2.7139.2071-3.9776.5762-9.5097-7.2861-15.1719-18.6709-15.1719-30.6699,0-21.2901,17.3125-38.6104,38.59181-38.6104s38.59089,17.3203,38.59089,38.6104-17.3116,38.6113-38.59089,38.6113ZM211.53759,119.1298c-.999,1.6114-1.6133,3.7071-1.8252,5.8291-3.53319-.9257-6.7471-2.1484-9.5645-3.4267.3897-.8154,1.3047-1.5713,2.86431-1.5713.09669,0,.19339.0068.29.0068,2.82129,0,5.57519-.289,8.23539-.8379ZM199.19579,119.7646c-.3203.2813-.5869.5996-.8027.9395-1.2403-.5245-3.62989-1.6416-4.4063-2.1075,1.2266.3946,3.9668,1.044,5.209,1.168ZM183.8599,111.4502c4.0605,0,7.86231,2.0849,10.0918,5.4238-1.961-.4883-3.8848-1.128-5.7618-1.9278l-.0048.0118-.0557-.0323c-1.3076-.6162-2.709-.9287-4.1651-.9287-3.2333,0-6.0947,1.583-7.8632,4.0039-.7412-.4121-1.4795-.8437-2.2061-1.2949,2.1904-3.1709,5.8379-5.2558,9.9649-5.2558ZM211.04249,142.125c-2.2246,0-3.874,1.7334-3.874,3.8774,0,2.499,1.748,4.0029,4.0019,4.0029.2803,0,.5537-.0312.8174-.0869-.6719,3.1143-4.3545,6.4883-8.791,7.9981-4.3604-1.5098-8.10259-4.8838-8.7735-7.9981.2637.0557.5362.0869.8164.0869,2.2539,0,4.003-1.5039,4.003-4.0029,0-2.144-1.6504-3.8774-3.875-3.8774.56051-1.0303,1.1963-2.3008,1.667-3.6338,2.6191.4492,5.1972.6953,7.5986.6953,1.9375,0,3.8213-.1006,5.6621-.2822.2471.9472.8457,2.7636,1.0029,3.2373-.07909-.0088-.16209-.0166-.2558-.0166ZM204.63329,137.2373c-7.7275,0-17.37209-2.627-23.999-6.5371-1.9785-1.167-4.3379-3.337-4.3379-7.042,0-.9629.1846-1.8809.50581-2.7315,2.50389,2.0606,5.06939,3.9756,6.68949,4.8633.3818.21.6016.3115,1.0459.3115,1.0635,0,1.9267-.8662,1.9267-1.9346,0-.8164-.4433-1.4794-1.1748-1.7988-1.3896-.6074-4.2705-1.7998-7.3925-3.4072,1.4033-1.8291,3.5976-3.0147,6.0673-3.0147,1.1358,0,2.2305.2442,3.251.7256l2.1094,1.2295c6.707,4.0967,23.8457,14.5615,44.6172,9.127-7.84469,6.8515-17.46969,10.209-29.3086,10.209ZM237.09029,124.0136c-9.2842,3.2725-17.95409,3.0635-25.3672,1.4287.2364-3.1748,1.418-6.6923,3.37411-7.2216,16.67669-5.0577,28.84959-20.5411,28.84959-38.8135,0-22.3643-18.2334-40.5596-40.64459-40.5596s-40.64551,18.1953-40.64551,40.5596c0,12.2158,5.5967,23.8369,15.0606,31.5078-2.2178,1.0674-4.1094,2.6953-5.5039,4.6914-.666-.4629-1.3076-.9414-1.90819-1.4346l-.37891.3809c.4121.498,1.0234,1.1357,1.7666,1.8564-1.2705,2.1104-2.0088,4.5713-2.0088,7.2071,0,.1816.0205.3574.0273.5371-14.1875-10.6651-22.5195-27.377-22.375-45.2002.126-15.5049,6.4375-29.874,17.7735-40.461,10.5205-9.8252,24.2451-15.1728,38.6464-15.0556,30.8604.25,55.7637,25.5625,55.5127,56.4258-.1425,17.5263-8.2226,33.5703-22.1787,44.1513Z"/><path class="cls-2" d="M172.3804,47.9726c0,.8291-.3623,1.7041-1.0869,2.4961-1.3917,1.5215-2.875,1.6592-3.02929,1.6563l-.42091-1.6045c.2334-.0625,1.3232-.2852,2.0966-1.1319.3496-.3828.53031-.79.53031-1.1494,0-.3828-.25191-1.0459-1.03911-1.0459-.8418,0-2.248,1.2188-3.6914,1.2188-.5537,0-1.1689-.0772-1.81049-.6661-.61911-.5654-.90631-1.288-.90631-2.0234,0-.8027.3672-1.6455,1.0479-2.3896,1.293-1.4141,2.7158-1.5284,2.8389-1.5342l.3476,1.5762c-.16309.0283-1.2217.2597-1.8779.9775-.3369.3691-.5156.7695-.5156,1.1211,0,.3808.2422.8486.8711.8564.6914.0088,2.4326-1.2636,3.8486-1.2636.6562,0,1.1338.1162,1.7978.7246.6661.6084.9991,1.374.9991,2.1816Z"/><path class="cls-2" d="M216.97799,38.2382c-2.46779,0-4.7099-1.8818-4.7099-4.7089,0-2.5264,1.6933-5.4571,4.7695-5.4571,2.501,0,4.8174,1.7686,4.8164,4.6123,0,2.1407-1.4443,5.5537-4.876,5.5537ZM219.79049,32.6582c0-.668-.15129-1.3672-.5556-1.9102-.4209-.5635-1.1104-.958-1.9268-.958-1.7354,0-3.00589,2.1523-3.00589,3.9297,0,1.6504,1.11429,2.7715,2.61039,2.7715,1.9629,0,2.8779-2.5508,2.8779-3.833Z"/><path class="cls-2" d="M243.83449,58.9228c-2.94629,0-4.57029-2.8398-4.57029-4.7441,0-2.8877,3.10929-5.0948,5.53709-5.0948,2.6474,0,4.5908,2.5176,4.5908,4.7989,0,2.5927-2.708,5.04-5.5576,5.04ZM243.49069,56.9589c1.7002,0,4.0586-1.4716,4.0586-3.4502,0-1.3642-1.0596-2.4277-2.418-2.4277-1.5908,0-4.0156,1.4131-4.0156,3.4111,0,1.0645.81451,2.4668,2.375,2.4668Z"/><path class="cls-2" d="M245.73969,87.4423c0-2.3906,1.6202-4.7402,4.8379-4.7402,2.7051,0,5.3213,1.668,5.3213,4.6631,0,2.4609-1.5771,4.8262-4.7724,4.8262-2.7344,0-5.3868-1.7266-5.3868-4.7491ZM251.23189,90.123c1.7168,0,2.9746-1.0498,2.9746-2.5918,0-1.8398-2.1298-2.7764-3.7754-2.7764-2.1054,0-2.95989,1.3692-2.95989,2.6563,0,2.0156,2.47069,2.7119,3.76069,2.7119Z"/><path class="cls-2" d="M242.05909,98.8554l2.8779.0127c1.36521.0108,1.4697-.3242,1.793-1.0371l.0957-.2119-3.4639-1.6074.8311-1.8379,8.7636,4.0459-1.124,2.5215c-.7676,1.6972-1.4248,2.5527-3.0322,2.5527-1.0313,0-2.5459-.8584-2.5332-2.4355.0019-.2432.03511-.503.1142-.7793-.5166.8955-1.8144.7714-2.6269.7705l-2.5928-.0098.8975-1.9844ZM247.67239,99.9335c0,.7393.622,1.3272,1.3134,1.3272.6192,0,1.0059-.3389,1.3702-1.1445l.3027-.7217-2.3926-1.124-.3994.8916c-.1328.2939-.1943.5498-.1943.7714Z"/><path class="cls-2" d="M236.16649,109.5615c0-1.9805.917-3.0586,2.0791-4.4893l1.2568-1.542,7.50881,6.1114-1.68651,2.0703c-.9521,1.1699-2.0732,2.6093-4.22749,2.6093-1.22661,0-2.30281-.5683-3.06551-1.1894-.9541-.7754-1.8652-2.0908-1.8652-3.5703ZM241.32269,112.4013c1.02251,0,1.6143-.3066,2.7881-1.75l.3672-.4502-4.9873-4.0586-.6133.7539c-.6006.7383-.9131,1.4659-.9131,2.1651,0,.9326.461,1.7519,1.4053,2.5215.6787.5517,1.3037.8183,1.9531.8183Z"/></svg>